<?xml version="1.0" standalone="no"?>
<!DOCTYPE svg PUBLIC "-//W3C//DTD SVG 20010904//EN"
 "http://www.w3.org/TR/2001/REC-SVG-20010904/DTD/svg10.dtd">
<svg version="1.0" xmlns="http://www.w3.org/2000/svg"
 width="826.000000pt" height="362.000000pt" viewBox="0 0 826.000000 362.000000"
 preserveAspectRatio="xMidYMid meet">
<metadata>
Created by potrace 1.16, written by Peter Selinger 2001-2019
</metadata>
<g transform="translate(0.000000,362.000000) scale(0.100000,-0.100000)"
fill="#636362" stroke="none">
<path d="M5483 2940 c-50 -10 -102 -25 -115 -33 -12 -8 -36 -18 -51 -21 -16
-4 -34 -11 -40 -17 -7 -5 -37 -25 -67 -45 -237 -149 -394 -390 -421 -647 -14
-130 0 -312 31 -399 11 -32 20 -65 20 -75 1 -10 9 -36 20 -58 11 -22 20 -44
20 -50 1 -13 89 -190 114 -230 84 -132 137 -206 217 -301 70 -83 200 -218 223
-232 18 -10 114 -93 134 -115 9 -9 22 -17 29 -17 21 0 35 -37 23 -60 -9 -17
-145 -90 -167 -90 -5 0 -24 -8 -43 -19 -19 -10 -51 -22 -70 -26 -19 -4 -44
-13 -55 -20 -11 -7 -38 -16 -60 -19 -22 -4 -56 -13 -75 -21 -32 -13 -133 -33
-280 -55 -77 -12 -253 -11 -325 0 -134 22 -305 70 -335 95 -8 7 -26 16 -39 20
-13 4 -42 20 -65 36 -22 16 -52 37 -66 47 -50 35 -147 142 -201 223 -51 77
-99 166 -99 183 0 9 -48 116 -61 136 -5 8 -15 26 -22 40 -16 34 -32 54 -89
110 -38 36 -61 49 -111 63 -62 16 -67 16 -140 -3 -93 -25 -194 -83 -323 -186
-23 -18 -53 -39 -68 -45 -14 -7 -26 -16 -26 -20 0 -4 -11 -14 -24 -21 -13 -7
-66 -41 -117 -75 -51 -35 -98 -63 -106 -63 -7 0 -13 -4 -13 -9 0 -5 -17 -15
-37 -21 -21 -7 -45 -18 -53 -25 -8 -7 -55 -25 -105 -41 -83 -27 -102 -29 -240
-29 -138 1 -157 3 -235 30 -47 15 -92 34 -100 40 -8 7 -26 16 -40 20 -13 4
-36 15 -50 25 -14 9 -45 30 -70 46 -178 113 -475 418 -632 650 -19 28 -40 57
-46 65 -27 31 -181 270 -187 290 -5 16 -40 39 -61 39 -15 0 1 -47 34 -97 20
-32 42 -66 47 -75 6 -9 42 -63 80 -118 39 -56 77 -112 85 -123 27 -40 143
-192 159 -209 9 -9 34 -38 56 -65 22 -26 94 -101 160 -166 157 -154 160 -157
173 -157 6 0 15 -6 19 -13 4 -7 22 -21 38 -32 17 -10 36 -25 43 -32 7 -7 20
-13 27 -13 8 0 18 -6 22 -13 8 -11 63 -41 163 -86 25 -11 69 -25 98 -31 29 -5
60 -14 70 -19 28 -15 173 -22 232 -12 107 19 196 42 240 62 114 52 203 100
265 142 122 82 152 103 165 115 8 7 47 35 85 62 39 27 77 55 84 62 19 16 59
38 140 77 82 40 166 43 224 7 39 -24 137 -141 137 -164 0 -8 9 -25 20 -39 11
-14 20 -33 20 -42 0 -10 7 -26 15 -37 8 -10 20 -37 26 -59 6 -21 19 -50 30
-63 10 -14 19 -28 19 -33 0 -8 33 -61 68 -108 29 -40 191 -201 202 -201 5 0
18 -8 28 -18 16 -15 105 -62 187 -97 302 -132 829 -95 1220 86 22 10 69 31
105 47 36 17 72 37 79 46 18 21 84 21 102 0 7 -8 26 -22 43 -31 17 -9 33 -19
36 -22 10 -13 300 -151 317 -151 4 0 30 -9 58 -19 254 -96 607 -110 840 -33
72 24 227 97 258 121 6 6 28 24 48 41 20 16 39 30 42 30 12 0 142 147 177 200
8 13 25 35 36 49 12 14 24 36 28 48 4 13 13 29 19 36 15 16 63 114 72 147 4
14 13 32 20 40 7 8 16 31 20 50 4 19 13 44 20 55 7 11 16 36 19 55 4 19 16 62
26 95 72 228 137 689 160 1135 6 107 14 213 20 235 12 49 13 125 2 125 -5 0
-16 -6 -26 -13 -20 -14 -26 -63 -46 -337 -26 -370 -41 -546 -46 -560 -3 -8
-14 -76 -25 -150 -29 -210 -48 -292 -103 -466 -14 -45 -26 -88 -26 -95 0 -8
-9 -31 -20 -52 -11 -20 -20 -42 -20 -48 0 -12 -90 -195 -123 -249 -33 -56
-136 -181 -191 -233 -43 -40 -111 -89 -201 -145 -53 -33 -149 -68 -253 -92
-117 -28 -377 -31 -464 -7 -29 9 -75 19 -103 22 -27 4 -69 16 -92 26 -23 11
-49 19 -58 19 -15 0 -62 19 -171 71 -23 10 -44 19 -47 19 -4 0 -51 25 -107 56
-71 40 -100 62 -100 75 0 11 0 22 -1 26 -1 4 12 14 28 23 16 8 40 24 55 35 14
11 38 29 54 40 144 104 337 297 419 419 11 16 28 41 38 55 9 14 26 45 38 69
11 23 24 42 29 42 6 0 10 5 10 12 0 6 9 30 20 52 74 155 124 393 113 551 -17
254 -158 558 -332 719 -19 17 -42 38 -50 46 -9 8 -28 23 -41 32 -14 10 -47 33
-75 53 -27 19 -55 35 -61 35 -6 0 -17 6 -23 13 -6 8 -30 19 -53 26 -24 7 -48
17 -54 22 -19 15 -207 49 -269 48 -33 -1 -101 -9 -152 -19z m352 -61 c79 -23
225 -92 266 -127 7 -6 32 -27 54 -44 57 -47 154 -149 161 -170 3 -10 9 -18 13
-18 4 0 21 -21 37 -47 16 -27 35 -57 42 -68 7 -11 19 -36 28 -55 8 -19 21 -48
29 -65 42 -91 62 -182 71 -315 10 -166 -17 -335 -76 -465 -10 -22 -21 -50 -25
-62 -5 -20 -22 -50 -68 -128 -65 -110 -144 -210 -248 -314 -77 -77 -246 -218
-288 -241 -14 -7 -30 -17 -35 -21 -6 -5 -25 -20 -42 -34 -38 -30 -44 -30 -72
-8 -12 10 -56 45 -97 77 -41 33 -75 63 -75 68 0 4 -5 8 -11 8 -16 0 -219 208
-302 309 -39 48 -151 219 -183 280 -19 35 -38 69 -42 75 -12 19 -53 119 -64
156 -5 19 -14 40 -19 46 -5 6 -13 35 -19 65 -6 30 -18 81 -26 114 -30 117 -4
395 44 480 6 11 18 36 27 55 79 179 309 376 520 446 113 38 275 39 400 3z"/>
<path d="M459 2284 c-14 -13 -14 -20 -3 -52 7 -20 13 -45 14 -54 0 -10 10 -39
21 -65 12 -27 33 -73 46 -103 14 -30 31 -66 38 -80 16 -31 35 -130 35 -186 0
-34 4 -43 22 -47 12 -3 25 -4 30 -1 24 15 -20 218 -66 311 -18 36 -62 132 -71
158 -7 18 -7 56 0 63 2 3 177 -28 265 -47 49 -11 252 -14 287 -5 23 6 37 50
18 58 -6 2 -34 0 -61 -6 -69 -13 -352 9 -395 32 -9 5 -43 13 -75 19 -32 5 -66
12 -74 15 -9 4 -23 -1 -31 -10z"/>
</g>
</svg>
